<mxfile host="app.diagrams.net" modified="2022-09-13T15:39:54.621Z" agent="5.0 (Windows NT 10.0; Win64; x64) AppleWebKit/537.36 (KHTML, like Gecko) Chrome/105.0.0.0 Safari/537.36" etag="gTWBkoWYVS24AcOpDlfg" version="20.3.0" type="github">
  <diagram name="Page-1" id="97916047-d0de-89f5-080d-49f4d83e522f">
    <mxGraphModel dx="1943" dy="1066" grid="1" gridSize="10" guides="1" tooltips="1" connect="1" arrows="1" fold="1" page="1" pageScale="1.5" pageWidth="4681" pageHeight="3300" background="none" math="0" shadow="0">
      <root>
        <mxCell id="0" />
        <mxCell id="1" parent="0" />
        <mxCell id="2" value="Главная страница" style="rounded=1;fillColor=#10739E;strokeColor=none;shadow=1;gradientColor=none;fontStyle=1;fontColor=#FFFFFF;fontSize=14;" parent="1" vertex="1">
          <mxGeometry x="2630" y="1510" width="200" height="60" as="geometry" />
        </mxCell>
        <mxCell id="4" value="Войти/Регистрация" style="rounded=1;fillColor=#10739E;strokeColor=none;shadow=1;gradientColor=none;fontStyle=1;fontColor=#FFFFFF;fontSize=14;" parent="1" vertex="1">
          <mxGeometry x="2282" y="1805.5" width="200" height="60" as="geometry" />
        </mxCell>
        <mxCell id="5" value="Контакты" style="rounded=1;fillColor=#10739E;strokeColor=none;shadow=1;gradientColor=none;fontStyle=1;fontColor=#FFFFFF;fontSize=14;" parent="1" vertex="1">
          <mxGeometry x="2510" y="1805.5" width="200" height="60" as="geometry" />
        </mxCell>
        <mxCell id="6" value="Почему мы?" style="rounded=1;fillColor=#10739E;strokeColor=none;shadow=1;gradientColor=none;fontStyle=1;fontColor=#FFFFFF;fontSize=14;" parent="1" vertex="1">
          <mxGeometry x="2740" y="1805.5" width="200" height="60" as="geometry" />
        </mxCell>
        <mxCell id="30" value="" style="edgeStyle=elbowEdgeStyle;elbow=vertical;strokeWidth=4;endArrow=block;endFill=1;fontStyle=1;strokeColor=#23445D;exitX=0.5;exitY=1;exitDx=0;exitDy=0;" parent="1" source="2" target="5" edge="1">
          <mxGeometry x="2002" y="1405.5" width="100" height="100" as="geometry">
            <mxPoint x="2752.0000000000005" y="1645.5" as="sourcePoint" />
            <mxPoint x="2102" y="1405.5" as="targetPoint" />
          </mxGeometry>
        </mxCell>
        <mxCell id="31" value="" style="edgeStyle=elbowEdgeStyle;elbow=vertical;strokeWidth=4;endArrow=block;endFill=1;fontStyle=1;strokeColor=#23445D;exitX=0.5;exitY=1;exitDx=0;exitDy=0;" parent="1" source="2" target="4" edge="1">
          <mxGeometry x="2002" y="1405.5" width="100" height="100" as="geometry">
            <mxPoint x="2752.0000000000005" y="1645.5" as="sourcePoint" />
            <mxPoint x="2102" y="1405.5" as="targetPoint" />
          </mxGeometry>
        </mxCell>
        <mxCell id="32" value="" style="edgeStyle=elbowEdgeStyle;elbow=vertical;strokeWidth=4;endArrow=block;endFill=1;fontStyle=1;strokeColor=#23445D;exitX=0.5;exitY=1;exitDx=0;exitDy=0;" parent="1" source="2" target="6" edge="1">
          <mxGeometry x="2002" y="1405.5" width="100" height="100" as="geometry">
            <mxPoint x="2752.0000000000005" y="1645.5" as="sourcePoint" />
            <mxPoint x="2102" y="1405.5" as="targetPoint" />
          </mxGeometry>
        </mxCell>
        <mxCell id="a5nXKRKM5By3hz5gbfIK-55" value="Корзина" style="rounded=1;fillColor=#10739E;strokeColor=none;shadow=1;gradientColor=none;fontStyle=1;fontColor=#FFFFFF;fontSize=14;" vertex="1" parent="1">
          <mxGeometry x="2970" y="1805.5" width="200" height="60" as="geometry" />
        </mxCell>
        <mxCell id="a5nXKRKM5By3hz5gbfIK-56" value="" style="edgeStyle=elbowEdgeStyle;elbow=vertical;strokeWidth=4;endArrow=block;endFill=1;fontStyle=1;strokeColor=#23445D;exitX=0.5;exitY=1;exitDx=0;exitDy=0;entryX=0.5;entryY=0;entryDx=0;entryDy=0;" edge="1" parent="1" source="2" target="a5nXKRKM5By3hz5gbfIK-55">
          <mxGeometry x="2202" y="1385.5" width="100" height="100" as="geometry">
            <mxPoint x="2969.9999999999995" y="1550" as="sourcePoint" />
            <mxPoint x="3040" y="1675.5" as="targetPoint" />
          </mxGeometry>
        </mxCell>
        <mxCell id="a5nXKRKM5By3hz5gbfIK-57" value="Исследование&#xa;и разработка" style="rounded=1;fillColor=#10739E;strokeColor=none;shadow=1;gradientColor=none;fontStyle=1;fontColor=#FFFFFF;fontSize=14;" vertex="1" parent="1">
          <mxGeometry x="3200" y="1805.5" width="200" height="60" as="geometry" />
        </mxCell>
        <mxCell id="a5nXKRKM5By3hz5gbfIK-58" value="Лазерная резка&#xa;металла" style="rounded=1;fillColor=#10739E;strokeColor=none;shadow=1;gradientColor=none;fontStyle=1;fontColor=#FFFFFF;fontSize=14;" vertex="1" parent="1">
          <mxGeometry x="2050" y="1805.5" width="200" height="60" as="geometry" />
        </mxCell>
        <mxCell id="a5nXKRKM5By3hz5gbfIK-62" value="" style="edgeStyle=elbowEdgeStyle;elbow=vertical;strokeWidth=4;endArrow=block;endFill=1;fontStyle=1;strokeColor=#23445D;exitX=0.5;exitY=1;exitDx=0;exitDy=0;entryX=0.5;entryY=0;entryDx=0;entryDy=0;" edge="1" parent="1" source="2" target="a5nXKRKM5By3hz5gbfIK-57">
          <mxGeometry x="2352" y="1365.5" width="100" height="100" as="geometry">
            <mxPoint x="2880" y="1550" as="sourcePoint" />
            <mxPoint x="3220" y="1675.5" as="targetPoint" />
          </mxGeometry>
        </mxCell>
        <mxCell id="a5nXKRKM5By3hz5gbfIK-63" value="" style="edgeStyle=elbowEdgeStyle;elbow=vertical;strokeWidth=4;endArrow=block;endFill=1;fontStyle=1;strokeColor=#23445D;exitX=0.5;exitY=1;exitDx=0;exitDy=0;entryX=0.5;entryY=0;entryDx=0;entryDy=0;" edge="1" parent="1" source="2" target="a5nXKRKM5By3hz5gbfIK-58">
          <mxGeometry x="1872" y="1405.5" width="100" height="100" as="geometry">
            <mxPoint x="2600" y="1570" as="sourcePoint" />
            <mxPoint x="2252" y="1695.5" as="targetPoint" />
          </mxGeometry>
        </mxCell>
        <mxCell id="a5nXKRKM5By3hz5gbfIK-64" value="Сборка плат" style="rounded=1;fillColor=#10739E;strokeColor=none;shadow=1;gradientColor=none;fontStyle=1;fontColor=#FFFFFF;fontSize=14;" vertex="1" parent="1">
          <mxGeometry x="2282" y="1225.5" width="200" height="60" as="geometry" />
        </mxCell>
        <mxCell id="a5nXKRKM5By3hz5gbfIK-65" value="УФ печать" style="rounded=1;fillColor=#10739E;strokeColor=none;shadow=1;gradientColor=none;fontStyle=1;fontColor=#FFFFFF;fontSize=14;" vertex="1" parent="1">
          <mxGeometry x="2510" y="1225.5" width="200" height="60" as="geometry" />
        </mxCell>
        <mxCell id="a5nXKRKM5By3hz5gbfIK-66" value="3D печать" style="rounded=1;fillColor=#10739E;strokeColor=none;shadow=1;gradientColor=none;fontStyle=1;fontColor=#FFFFFF;fontSize=14;" vertex="1" parent="1">
          <mxGeometry x="2740" y="1225.5" width="200" height="60" as="geometry" />
        </mxCell>
        <mxCell id="a5nXKRKM5By3hz5gbfIK-67" value="" style="edgeStyle=elbowEdgeStyle;elbow=vertical;strokeWidth=4;endArrow=block;endFill=1;fontStyle=1;strokeColor=#23445D;" edge="1" parent="1" target="a5nXKRKM5By3hz5gbfIK-65">
          <mxGeometry x="2002" y="1095.5" width="100" height="100" as="geometry">
            <mxPoint x="2730" y="1510" as="sourcePoint" />
            <mxPoint x="2102" y="1095.5" as="targetPoint" />
          </mxGeometry>
        </mxCell>
        <mxCell id="a5nXKRKM5By3hz5gbfIK-68" value="" style="edgeStyle=elbowEdgeStyle;elbow=vertical;strokeWidth=4;endArrow=block;endFill=1;fontStyle=1;strokeColor=#23445D;exitX=0.5;exitY=0;exitDx=0;exitDy=0;" edge="1" parent="1" target="a5nXKRKM5By3hz5gbfIK-64" source="2">
          <mxGeometry x="2002" y="1095.5" width="100" height="100" as="geometry">
            <mxPoint x="2540" y="1490" as="sourcePoint" />
            <mxPoint x="2102" y="1095.5" as="targetPoint" />
          </mxGeometry>
        </mxCell>
        <mxCell id="a5nXKRKM5By3hz5gbfIK-69" value="" style="edgeStyle=elbowEdgeStyle;elbow=vertical;strokeWidth=4;endArrow=block;endFill=1;fontStyle=1;strokeColor=#23445D;entryX=0.5;entryY=1;entryDx=0;entryDy=0;exitX=0.5;exitY=0;exitDx=0;exitDy=0;" edge="1" parent="1" target="a5nXKRKM5By3hz5gbfIK-66" source="2">
          <mxGeometry x="2002" y="1095.5" width="100" height="100" as="geometry">
            <mxPoint x="2730" y="1500" as="sourcePoint" />
            <mxPoint x="2860" y="1370" as="targetPoint" />
          </mxGeometry>
        </mxCell>
        <mxCell id="a5nXKRKM5By3hz5gbfIK-70" value="ЧПУ фрезер" style="rounded=1;fillColor=#10739E;strokeColor=none;shadow=1;gradientColor=none;fontStyle=1;fontColor=#FFFFFF;fontSize=14;" vertex="1" parent="1">
          <mxGeometry x="2970" y="1225.5" width="200" height="60" as="geometry" />
        </mxCell>
        <mxCell id="a5nXKRKM5By3hz5gbfIK-71" value="" style="edgeStyle=elbowEdgeStyle;elbow=vertical;strokeWidth=4;endArrow=block;endFill=1;fontStyle=1;strokeColor=#23445D;exitX=0.5;exitY=0;exitDx=0;exitDy=0;entryX=0.5;entryY=1;entryDx=0;entryDy=0;" edge="1" parent="1" target="a5nXKRKM5By3hz5gbfIK-70" source="2">
          <mxGeometry x="2202" y="1075.5" width="100" height="100" as="geometry">
            <mxPoint x="2730" y="1260" as="sourcePoint" />
            <mxPoint x="3070" y="1440" as="targetPoint" />
          </mxGeometry>
        </mxCell>
        <mxCell id="a5nXKRKM5By3hz5gbfIK-72" value="3D прототипирование" style="rounded=1;fillColor=#10739E;strokeColor=none;shadow=1;gradientColor=none;fontStyle=1;fontColor=#FFFFFF;fontSize=14;" vertex="1" parent="1">
          <mxGeometry x="3200" y="1225.5" width="200" height="60" as="geometry" />
        </mxCell>
        <mxCell id="a5nXKRKM5By3hz5gbfIK-73" value="Расчет печатной платы" style="rounded=1;fillColor=#10739E;strokeColor=none;shadow=1;gradientColor=none;fontStyle=1;fontColor=#FFFFFF;fontSize=14;" vertex="1" parent="1">
          <mxGeometry x="2050" y="1225.5" width="200" height="60" as="geometry" />
        </mxCell>
        <mxCell id="a5nXKRKM5By3hz5gbfIK-76" value="" style="edgeStyle=elbowEdgeStyle;elbow=vertical;strokeWidth=4;endArrow=block;endFill=1;fontStyle=1;strokeColor=#23445D;exitX=0.5;exitY=0;exitDx=0;exitDy=0;entryX=0.5;entryY=1;entryDx=0;entryDy=0;" edge="1" parent="1" target="a5nXKRKM5By3hz5gbfIK-72" source="2">
          <mxGeometry x="2352" y="1055.5" width="100" height="100" as="geometry">
            <mxPoint x="2730" y="1260" as="sourcePoint" />
            <mxPoint x="3300" y="1370" as="targetPoint" />
          </mxGeometry>
        </mxCell>
        <mxCell id="a5nXKRKM5By3hz5gbfIK-77" value="" style="edgeStyle=elbowEdgeStyle;elbow=vertical;strokeWidth=4;endArrow=block;endFill=1;fontStyle=1;strokeColor=#23445D;exitX=0.5;exitY=0;exitDx=0;exitDy=0;entryX=0.5;entryY=1;entryDx=0;entryDy=0;" edge="1" parent="1" target="a5nXKRKM5By3hz5gbfIK-73" source="2">
          <mxGeometry x="1872" y="1095.5" width="100" height="100" as="geometry">
            <mxPoint x="2340" y="1520" as="sourcePoint" />
            <mxPoint x="2150" y="1360" as="targetPoint" />
          </mxGeometry>
        </mxCell>
      </root>
    </mxGraphModel>
  </diagram>
</mxfile>
